# xmcd
#
# Track frame offsets:
#	150
#	14845
#	32055
#	54582
#	73627
#	91767
#	112155
#	130065
#	148875
#	167590
#	185038
#	204430
#	221353
#	242508
#	261315
#	279650
#	298745
#	314143
#	332393
#
# Disc length: 4711
#
# Revision: 1
# Processed by: cddbd v1.5.1PL0 Copyright (c) Steve Scherf et al.
# Submitted via: dBpowerAMP V4.0
# Normalized: r0:DSETVAR1,TDELIM( - )
#
DISCID=2d126513
DTITLE=Various Artist - Club X 4, CD2
DYEAR=1998
DGENRE=Dance
TTITLE0=Funny F - Funky (original edit)
TTITLE1=Poogie Bear and Mark V - Funkier
TTITLE2=Peter - Put Your Hands In The Air (instrumental 12" mix)
TTITLE3=Pat Krimson - Paranoid In Moscow (titanic mix)
TTITLE4=Fiocco - The Spirit (extended instrumental)
TTITLE5=Boy Tommy - Little Dicks (Pump Dat Dick)
TTITLE6=Glenn and Voltage Club - Silent Six (remix)
TTITLE7=Serge Servais and Pascal - Enjoy the Villa (Chantiz mix)
TTITLE8=Savage - The Heat
TTITLE9=3 Guys On Warwick and Devone - Let Me Tell You Something (AJ and Humpty's power tools mix)
TTITLE10=Ittybitty and Boozywoozy and Greatski - Pumped Up Funk (Klubbheads sg mix)
TTITLE11=Greenfield - Violet Club Sandwich (The Wicked Sandwich EP)
TTITLE12=Fabulous Baker Boys - Oh Boy (Klubb Kings 'apeiron' mix)
TTITLE13=Camisra - Let Me Show You (Tall Paul remix)
TTITLE14=Tone Invaders - Flight 6865
TTITLE15=Cherry Stone - Mysterious Motivation
TTITLE16=AT Project - You're The One
TTITLE17=Footclub - Driftwood (house mix)
TTITLE18=Hornet - Keep Rockin' (The Rockin' EP)
EXTD=
EXTT0=
EXTT1=
EXTT2=
EXTT3=
EXTT4=
EXTT5=
EXTT6=
EXTT7=
EXTT8=
EXTT9=
EXTT10=
EXTT11=
EXTT12=
EXTT13=
EXTT14=
EXTT15=
EXTT16=
EXTT17=
EXTT18=
PLAYORDER=
